<?xml version="1.0" encoding="utf-8"?>
<!-- Generator: Adobe Illustrator 22.1.0, SVG Export Plug-In . SVG Version: 6.00 Build 0)  -->
<svg version="1.1" id="图层_1" xmlns="http://www.w3.org/2000/svg" xmlns:xlink="http://www.w3.org/1999/xlink" x="0px" y="0px"
	 viewBox="0 0 24 24" style="enable-background:new 0 0 24 24;" xml:space="preserve">
<style type="text/css">
	.st0{fill:#555555;}
</style>
<path class="st0" d="M5,17.6v-2l1.7-1.7L5,12.2v-2l2.7,2.7l0,0l1,1l-1,1l0,0L5,17.6z M0,13.1h7.3v1.7H0V13.1z M22.4,11h-5.5
	c-0.9,0-1.6,0.7-1.6,1.6v2.7c0,0.9,0.7,1.6,1.6,1.6h5.5c0.9,0,1.6-0.7,1.6-1.6v-2.7C24,11.8,23.3,11,22.4,11z M23.1,14.7
	c0,0.7-0.6,1.3-1.3,1.3h-4.4c-0.7,0-1.3-0.6-1.3-1.3v-1.6c0-0.7,0.6-1.3,1.3-1.3h4.4c0.7,0,1.3,0.6,1.3,1.3V14.7z M17.1,13.9
	c0,0.5,0.4,0.8,0.8,0.8c0.5,0,0.8-0.4,0.8-0.8s-0.4-0.8-0.8-0.8C17.5,13.1,17.1,13.4,17.1,13.9L17.1,13.9z M15.3,0L2.4,4.1v1h1
	l11-3.5l1.1,3.5h1.4L15.3,0z M4.7,20.9c-0.7,0-1.3-0.6-1.3-1.3l0-1.1H2.7v1.5c0,0.9,0.7,1.6,1.6,1.6h3.1v-0.6H4.7z M21.1,20.2
	c0,1.5-1,2.6-2.5,2.6L4,22.8c-1.5,0-2.6-1.1-2.6-2.7l0-3.1l0,0l0-1H0v2.8v2C0,22.6,1.4,24,3.2,24h16c1.8,0,3.2-1.4,3.2-3.2V17
	l-1.3,0L21.1,20.2z M19.2,4h-16C1.4,4,0,5.4,0,7.2V12h1.3l0-4.3c0-1.5,1-2.5,2.6-2.5h14.7c1.5,0,2.4,1.1,2.4,2.6l0,3.3h1.3V7.2
	C22.4,5.4,21,4,19.2,4z"/>
</svg>
